<svg version="1.1" id="Layer_1" xmlns="http://www.w3.org/2000/svg" xmlns:xlink="http://www.w3.org/1999/xlink" x="0" y="0" viewBox="0 0 413 465.6" xml:space="preserve"><style>.st2{fill:none;stroke:#fff;stroke-width:1.2;stroke-linecap:round;stroke-linejoin:round;stroke-miterlimit:10}.st3{fill:#ff6163}.st4{fill:#fad3d2}.st5{fill:#fff}.st6{fill:#0af}.st7{fill:none;stroke:#0085ff;stroke-width:1.2;stroke-linecap:round;stroke-miterlimit:10}.st8{fill:#0085ff}.st9{fill:#562b25}.st10{fill:#97cf00}.st11{fill:#59a800}.st12{fill:#ffad91}.st13{fill:#efefef}.st14{fill:none;stroke:#d1c6ba;stroke-width:1.2;stroke-linecap:round;stroke-linejoin:round;stroke-miterlimit:10}.st15{fill:#ee6c4d}.st16,.st17{fill:none;stroke:#ee6c4d;stroke-width:1.2;stroke-linecap:round;stroke-linejoin:round;stroke-miterlimit:10}.st17{stroke:#59a800}.st19{fill:#006833}.st20{fill:none;stroke:#562b25;stroke-width:1.2;stroke-linecap:round;stroke-linejoin:round;stroke-miterlimit:10}.st28{fill:#a169f7}.st29{fill:none;stroke:#5a4a8c;stroke-width:1.2;stroke-linecap:round;stroke-linejoin:round;stroke-miterlimit:10}</style><defs><path id="SVGID_1_" d="M0 0H413V465.6H0z"/></defs><clipPath id="SVGID_2_"><use xlink:href="#SVGID_1_" overflow="visible"/></clipPath><g clip-path="url(#SVGID_2_)"><g id="Слой_1"><path d="M49.3,315.3c-0.9,0-1.7-0.5-2.2-1.3c-3.6-6.5-10.1-9.5-10.1-9.6c-1.2-0.6-1.8-2.1-1.2-3.3 s2.1-1.8,3.3-1.2c0.3,0.1,8.1,3.8,12.4,11.7c0.7,1.2,0.2,2.7-1,3.4C50.1,315.2,49.7,315.3,49.3,315.3z" fill="#89ba00"/><path class="st2" d="M77.8 143.2L73.7 159"/><path class="st3" d="M77.1,157.8l-3.3-1.3c-1.1-0.4-2.3,0-2.8,1.1l-1.7,3.1c-0.3,0.5-0.3,1.1-0.1,1.6l4.7,12.6 c0.3,0.8,1.2,1.2,2.1,0.9l6-2.2c0.8-0.3,1.2-1.2,0.9-2.1l-4.7-12.6C78,158.4,77.6,158,77.1,157.8z M73.9,161.1 c-0.6,0.2-1.4-0.2-1.7-0.9c-0.3-0.8,0-1.6,0.7-1.8c0.6-0.2,1.4,0.2,1.7,0.9C74.8,160,74.5,160.8,73.9,161.1z"/><path class="st4" d="M391.5,230.5C384.9,103.6,321.2,1.7,236.2,14.7s-88.5,100.4-96.3,216.5S28.9,349.6,31.4,438.5 S150.7,553.9,254,527.7C357.4,501.6,399.2,376.6,391.5,230.5z"/><path class="st5" d="M242.2 579.5l-7.5-10.6 16.4-9c0 0 6 14.8 16.4 20.3l-11.2 9.1L242.2 579.5zM160.7 578l-1.3-9.1h-17.8c0 0 1.7 5.7-.7 10l18.1 7.9L160.7 578z"/><path d="M162.9,595.5c2.1-10.6-0.2-17.1-2.2-17.6c0,3.8-8.3,3.4-8.3,3.4l0,0c-3.5-2.3-8.9-4.7-11.4-2.5l0,0 c0,0-7.2,8.4-19.2,13.1c-12,4.7-15.4,4.4-15.4,9.9c0,0,6.7,3.9,21.6,2.6c8.3-0.7,14.8-6.2,23.7-6.2L162.9,595.5z"/><path d="M145.7,597.6l5.1,3.2c0,0,10.6,0.3,12-1.8v-3.5L145.7,597.6z"/><path class="st6" d="M113.2,328.1v81.3c0,10.5,0.5,21,1.6,31.5c0,0,6.3,47.5,9.1,70.8c3,23.9,10,41.5,10,41.5l-1.4,16.2 l3.8,5.4c0.6,0.9,1.7,1.5,2.8,1.4c4.7-0.1,17.4-0.7,24.8-3.8c0,0,1-5.5-0.8-11.9c-0.5-1.9-0.3-3.9,0.6-5.6l0,0 c1-2,1.8-4.5,0.4-6.4l-4.5-6c-0.8-1.1-1-2.6-0.3-3.8l0.5-1c1.9-3.8,2.7-8,2.4-12.2l-3.6-42.3c-0.4-4.9-1.6-9.8-3.5-14.4l0,0 c-0.9-2.1-0.7-4.5,0.5-6.4l1.2-2c1-1.7,1.6-3.6,1.7-5.6l5.7-129.1L113.2,328.1z"/><path class="st6" d="M151,371.7c0,0,29.9,114.2,84.6,202c0,0,14.5,2.2,26.4-1.2l3.9-7.3l-9.4-10.8l1-3.5 c0.6-2.1-0.2-4.3-2.1-5.5l0,0c-1.2-0.7-2-1.9-2.2-3.2c-0.9-4.9-5.7-17.7-11.2-31.1c-7.1-17.1-51.7-186.6-51.7-186.6l-41.6,8.6 L151,371.7z"/><path class="st7" d="M129.8 409.5c.3 22.8 1.2 54.5 4 75.7 4.7 36.3 6.4 59.2 6.4 67.5s-1.7 20.7-1.7 20.7M129.7 381.7c0 0-.1 9.5 0 23.2"/><path class="st8" d="M159.3 538.7c-1.1 2.1-2.5 4.8-3.5 6.6-.6 1.1-.1 2.5 1.2 3 3.4 1.1 9.1 2.7 7.2.2l-4.5-6C158.8 541.4 158.7 539.9 159.3 538.7zM160.7 405.1c0 0-3-9.7-4.9-16.2-1.8-6.1-7.1-8.9-7.1-8.9s0 33.9 10.3 64.3L160.7 405.1z"/><path class="st7" d="M239.1 535.3c-17.8-31.8-47.2-88.4-61.3-139.2M253.9 560.6c0 0-3.2-5.2-8.1-13.8"/><path class="st8" d="M256.4,554.4l-0.9,3.2c0,0,3.4,3.5,7.3,4.1L256.4,554.4z"/><path d="M241.9,579.1c-2.3,1.8-4.1,7.2,0,13.8l-0.2,5c0,0,6.5,4.2,13.2,3.2l3.5-3.5c0,0,4.9,1.4,10.6,5.6 c0,0,16.7,2.7,28.4,1.1c5.8-0.8,7.2-4,7.2-4c0.1-4.1-1.8-5.7-5-6.9c-6.5-2.5-17.1-4.7-23.2-10.4s-10-6.9-12.9-3.9 c-3,3-6.3,4.8-6.3,4.8S248.3,583.9,241.9,579.1z"/><path class="st8" d="M201.9,368.4c0,0-12.1-3-22.5-11.4c0,0-7.5,1.4-14.5,1.5c0,0-3.7,11.5-11.5,11.2 c-7.7-0.2-14.4-15.3-14.4-15.3l-25.9-10.7v-15.6l77-3.6L201.9,368.4z"/><path d="M25.2,174.2c-1.5,0-2.9-0.7-3.8-2.1c-1.3-2.1-0.7-4.9,1.4-6.2L41.4,154c2.1-1.3,4.9-0.7,6.2,1.4s0.7,4.9-1.4,6.2 l-18.6,11.9C26.9,174,26.1,174.2,25.2,174.2z"/><circle class="st9" cx="43.8" cy="157.9" r="4.5"/><path class="st10" d="M43.9,160.9c-1,0-2-0.5-2.6-1.4c-0.9-1.4-0.5-3.3,0.9-4.2l38.3-24.4c1.4-0.9,3.3-0.5,4.2,0.9 c0.9,1.4,0.5,3.3-0.9,4.2l-38.3,24.4C45.1,160.7,44.5,160.9,43.9,160.9z"/><path class="st11" d="M42.8,159.9c-0.6-0.3-0.4-1.1,0-1.4l9.5-6c0.5-0.3,1.1-0.2,1.4,0.3s0.2,1.1-0.3,1.4l-8.8,5.6 C44,160.2,43.4,160.3,42.8,159.9z"/><path class="st12" d="M38.7,248l-12.9-7.8l0.8-23.4l16.1,4.3l8.7,19C51.4,240.2,48,247.2,38.7,248z"/><path class="st13" d="M127.8,224.7c0,0-11.3,1.8-16.4,7.2c-10.7-3.8-8.3,8.3-8.3,8.3s-9.2,13.8-12.7,24.9 c-1.7,5.5-5.6,10.3-5.6,10.3s0.7,0.7-11.2-15.3c-4.1-5.5-8.3-9.3-14.9-11.1l-7.2-9c0,0-4.6,5.9-12.6,7.8l5.4,11.2 c0,0,0,6.7,4.3,17.1c7.4,18,26.1,36.5,26.1,36.5c2.5,5.6,7.8,11,15.9,3.2C108,299,108,299,108,299s-1.3,13.3,1.4,20.5 c0,0-6,9.7-1.3,13.6c5.2,4.5,11.4-0.3,11.4-0.3s13.3,15,36.6,2.5c0,0,14.7,3,27.5-7.5c0,0,17.2,4.9,19.2-12.9 c1.9-17.8-5.7-35.2-5.7-35.2l-11.7-58.4c0,0-7.4-3.3-17.2-3.4L127.8,224.7z"/><path class="st3" d="M137.2,239.8l4.1,5c0,0-2,20.1-2,35.1l-3.7,49.2c0,0.6,0.1,1.2,0.5,1.6l8.7,9.6c1.9,2.1,3.1,1.3,4.2-0.1 l9.9-11.8c0.4-0.5,0.5-1.1,0.4-1.7c-0.8-4.5-5.7-43.4-9.2-61c-3.4-17.3-5.4-20.8-5.4-20.8l5-7.7l-7.6-4.3L137.2,239.8z"/><path class="st13" d="M137.3,218.5c0,0-3-0.8-4.7,1s-4.9,5.3-4.9,5.3c0.4,7.8,3.9,14.4,7,20.1l5.9-9.2 c1.1-1.9,2.7-0.6,3.3-0.1l9.4,8.2l0.7-0.8c3.1-3.3,5.7-7.1,7.6-11.2l6.4-13.4c0,0-2.1-5.6-6-5.5L137.3,218.5z"/><path class="st14" d="M128.5 229.8c1.2 5.9 3.9 11.1 6.3 15.7l2.2-3.6M149.6 240.4l3.7 3.3.7-.8c3.1-3.3 5.7-7.1 7.6-11.2l4.8-10.1"/><path class="st12" d="M131.4,211.5c6.5-0.1,5.1,11.7,5.1,11.7s1.8,4.5,5,7.9c0.8,0.8,1.4,1.3,3,0.2c4.5-3.1,12-9.6,17.6-18.5 c0,0-2.5-6.3-3-12.2s3.4-16.1,3.4-16.1L131.4,211.5z"/><path class="st15" d="M136.3,217.2L136.3,217.2l6.9-7.8l-11.9,2.2C134.6,211.5,135.9,214.3,136.3,217.2z"/><path d="M120.6,159c0,0-9.7,9.2,4.6,15.8l4.2-15.8H120.6z"/><path class="st12" d="M157.4,164.7c0,0-11.4-9.2-33.7-7.1c0,0-1.8,5.6-2.9,13c-0.4,2.7,0.1,3.3,0.1,4.8c0,6-1.5,8.1-1.5,16.4 c0,4.2,0.2,11,1.6,13.8c1.5,3.1,3.9,6,10.4,6c11.4,0,21.5-6.2,25.1-11.2C160.2,195.3,165.7,170.8,157.4,164.7z"/><path class="st16" d="M134.8,212c6.3-0.6,12-3.4,16.2-6.6"/><path class="st9" d="M156.4,167.3c0,0-3.7,1.6-5.3,0.9c-1.9-0.8,0.6-3.2,0.6-3.2s-8.6,3.3-15.2,3.1c-5.7-0.2-7.9-4.8-7.9-7.6 c0,0-5.7,3.6-11.7,1.6c-8-2.5-2-15.7,13.6-10.8c3.2,1,6.5,1.7,9.9,1.8c4.3,0.2,10.2,0.6,14.1,1.8c6.9,2.1,5.4,8.5,5.4,8.5 s8.7-2.7,10.6,4.9c2.5,9.6-8,16.1-11.1,27.6c0,0-2.5-3-2.4-10.6L156.4,167.3z"/><path class="st12" d="M155.9,178.9c0,0,3.7-4.5,6.4-2.5c2.3,1.8,0.8,5.8-0.3,9.4s-3.3,6.2-6.1,5.7L155.9,178.9L155.9,178.9z"/><path class="st15" d="M126.4,189.9c0,0,3,0.2,6.2-0.6c2.4-0.6,0.2-1.4-1.7-1.6c-1.9-0.2-4.4-0.7-5.4-0.2 C124.6,187.9,125.7,189.2,126.4,189.9z"/><path class="st5" d="M131.7,197.6c-0.7-1.8,1.3-3,3.8-3.9c2.6-0.9,3.8-2.8,5.2-2.1c1.4,0.6,0.1,4-2.3,6 C136,199.6,132.4,199.3,131.7,197.6z"/><path class="st16" d="M161.5,179.3c0,0-3.8,0.3-4.7,2.6s0.1,5-2.1,6.7"/><path class="st14" d="M106.6 255.9c0 0-6.1 18 .5 42.5M92.5 287.1L85.3 276.9M75.5 317.1L67.3 293.8M44.2 259.2c0 0 7.1-1.3 10.8-5.7"/><path class="st10" d="M29.4,262.5c-0.2,0-0.5,0-0.7-0.1c-1.9-0.4-3.1-2.3-2.7-4.1l22.4-105.6c0.4-1.9,2.3-3.1,4.1-2.7 c1.9,0.4,3.1,2.3,2.7,4.1L32.9,259.8C32.5,261.4,31.1,262.5,29.4,262.5z"/><path class="st10" d="M16.3,299.3l9.1-43.1c1.6-2.3,8.8-0.7,8.8,1.9l-9.1,43.1C24.7,303.3,15.9,301.5,16.3,299.3z"/><path class="st17" d="M33.5 256.8c0 0-2.1-2-5.8-1.5M52.7 155.5L32.1 253"/><path fill="none" stroke="#59a800" stroke-width="2" stroke-linecap="round" stroke-linejoin="round" stroke-miterlimit="10" d="M31.4 260.3L24 295.5"/><path class="st15" d="M35.7,246.2l3,1.8c1.5-7.1,7.8-10.1,7.8-10.1l-8.1-4.4L35.7,246.2z"/><path class="st11" d="M34.3,219.1l-5.6,26.3c0,0,4.7,2.8,5.6,7.2l6.4-30.2L34.3,219.1z"/><path class="st12" d="M37.1,224.5c0,0-4.4-4.4-9.6-7.4c-2.6-1.5-6.5,0.1-3.9,3.9c0.6,1,1.5,1.9,2.2,2.6c0.5,0.6,0.1,1-0.5,0.9 c-1.2-0.1-2.7,0-3.2,1.2c-1,2.1,1.4,4.8,1.4,4.8s-3.8,2.1,0.6,6c0,0-2.6,1.5-1.2,3.7c1.1,1.9,3.8,2.8,6.3,3.2 c2.5,0.5,3,0.6,4.3,0.7c2.7,0.3,4.5-3.7-0.1-4.5c0,0,2.4,0.3,3.2,0.1c1.3-0.3,2.1-3.1-0.2-4c-2.2-0.9-2.2-0.9-2.2-0.9 s3.2-1.3,0.6-3.9c-1.4-1.4-3.9-3.3-3.9-3.3s-0.9-1.6,0.9-0.8c0,0,3.7,2.2,4.9,1.6C37.6,228.2,38.7,226.6,37.1,224.5z"/><path class="st12" d="M51.4,240.2l-1.8-16.5c-0.1-1.3-0.9-2.5-2-3.2l-8.6-5.2l-2.6-4.4c-0.4-0.8-1.4-1.4-1.9-1 c-1,0.6-2.2,2.2-1.6,5.6c1,5.5,6.4,9.3,6.4,9.3s-1.5,3.2-0.9,8.8c0.4,3.3,2.9,6.9,5.7,8.2C46.6,242.9,51.4,240.2,51.4,240.2z"/><path class="st16" d="M26.9 224.7c0 0 2.5 1.7 4.9 3M27.7 233.5L33.5 235.3M26.4 238.8c0 0 2.6 1.4 7.1 1.5"/><path class="st11" d="M52.4,152.5l11.2-7.1c0.5-0.3,1.1-0.2,1.4,0.3s0.2,1.1-0.3,1.4l-10.5,6.7 C52.8,153.8,51.9,152.8,52.4,152.5z"/><path d="M62.8,150.2c-1.5,0-2.9-0.7-3.8-2.1c-1.3-2.1-0.7-4.9,1.4-6.2L79,130.1c2.1-1.3,4.9-0.7,6.2,1.4 c1.3,2.1,0.7,4.9-1.4,6.2l-18.6,11.8C64.4,150,63.6,150.2,62.8,150.2z"/><circle class="st9" cx="81.3" cy="133.9" r="4.5"/><path class="st19" d="M133.9,327.5c6,0.4,11.6,2.5,16.3,7.9l-8.9,0.3c0,0-5.1-8-15.8-5.7L133.9,327.5z"/><ellipse transform="rotate(-74.752 134.838 349.133)" cx="134.8" cy="349.1" rx="17.8" ry="16.9"/><path class="st20" d="M121.5,347.1c1.1-6.8,6.1-11.9,12-12.9"/><ellipse transform="rotate(-76.509 136.202 349.113)" class="st10" cx="136.2" cy="349.1" rx="9" ry="8.5"/><ellipse transform="rotate(-76.509 136.722 349.183)" class="st11" cx="136.7" cy="349.2" rx="2.1" ry="2"/><path class="st10" d="M115,340.8c0.8-0.1,1.5-0.7,2-1.4c7.6-9.5,15-10.8,16.9-10.8c1.3,0,1.3-1.2,0-1.2 c-2.7,0-17.2,0-27.4,14.8L115,340.8z"/><path class="st19" d="M115.5,339.5l-1.2-1.4c-0.4-0.5-1-0.8-1.6-1L67,324.9c-1-0.3-2-0.4-3-0.3l-9.7,0.5c-0.6,0-1-0.4-1.1-0.9 c-5.6-28-36.2-27.7-36.9-24.8c-0.2,1,0.9,2.4,4.8,2.8c7.5,0.8,12.1,3.4,16.3,9.1c4.4,6,5.5,12.3,5.8,15c0,0.4,0.1,0.8,0.5,1 l0,0l4.5,3.4c0.6,0.4,1.2,0.7,1.9,0.9l37.8,9.3c0.7,0.2,1.4,0.3,2.2,0.3l15.1,0.9c0.9,0.1,1.9,0,2.8-0.1l7.1-1.2 C115.6,340.7,115.9,340,115.5,339.5z"/><ellipse transform="rotate(-74.752 26.979 322.855)" cx="27" cy="322.9" rx="18.7" ry="17.7"/><path class="st20" d="M13,320.8c1.4-8.7,9-14.8,16.8-13.6c1.9,0.3,3.6,1,5.1,1.9"/><ellipse transform="rotate(-76.509 28.347 322.92)" class="st10" cx="28.3" cy="322.9" rx="9.4" ry="8.9"/><ellipse transform="rotate(-76.509 28.867 323.012)" class="st11" cx="28.9" cy="323" rx="2.2" ry="2.1"/><path d="M131.5,328.3c0,0,10.7-2.1,18.7,7" fill="none" stroke="#97cf00" stroke-width="1.2" stroke-linecap="round" stroke-linejoin="round" stroke-miterlimit="10"/><path class="st16" d="M155.1 337.9L156.3 336.8"/><path class="st13" d="M178.8,340.5l14.6-1.6c0,0,13,2.5,22.4-2.9s16.4-10.9,13.1-27.8s-12.7-27.3-12.7-27.3l-25.9-20.6 l4.5,46.8c0,0-4.3,2.2-8.6,4s-4.8,8-4.8,8l-10.3,6.8L178.8,340.5z"/><path class="st14" d="M174.1 324l7.5-4.9c0 0 1.6-3.4 5.4-6.3 10.8-8.1 10.8-8.1 10.8-8.1M192.3 336.3c0 0 .2-12.6-10.8-17.3M197 339.3c0 0 10.8 1.9 19.5-3.7 8.2-5.3 14.5-9.5 13.2-22.8"/><path d="M384,497.2c-4.4-8.4-28.8-8.1-50.4,3c-21.6,11.2-34.7,26.3-27.8,37.4c5,8.1,28.9,8.8,50.5-2.4 C377.9,524.1,388.4,505.6,384,497.2z" fill="#eae5db"/><defs><path id="SVGID_3_" d="M391.5,230.5C384.9,103.6,321.2,1.7,236.2,14.7s-88.5,100.4-96.3,216.5S28.9,349.6,31.4,438.5 S150.7,553.9,254,527.7C357.4,501.6,399.2,376.6,391.5,230.5z"/></defs><clipPath id="SVGID_4_"><use xlink:href="#SVGID_3_" overflow="visible"/></clipPath><path clip-path="url(#SVGID_4_)" fill="#ee6c4d" d="M321.4 433.9L377.8 433.9 377.8 360 321.4 349.6z"/><defs><path id="SVGID_5_" d="M391.5,230.5C384.9,103.6,321.2,1.7,236.2,14.7s-88.5,100.4-96.3,216.5S28.9,349.6,31.4,438.5 S150.7,553.9,254,527.7C357.4,501.6,399.2,376.6,391.5,230.5z"/></defs><clipPath id="SVGID_6_"><use xlink:href="#SVGID_5_" overflow="visible"/></clipPath><path clip-path="url(#SVGID_6_)" fill="#a169f7" d="M287.9 287.7L337.6 495.5 359.3 488.5 381.1 481.6 300.9 283.2z"/><defs><path id="SVGID_7_" d="M391.5,230.5C384.9,103.6,321.2,1.7,236.2,14.7s-88.5,100.4-96.3,216.5S28.9,349.6,31.4,438.5 S150.7,553.9,254,527.7C357.4,501.6,399.2,376.6,391.5,230.5z"/></defs><clipPath id="SVGID_8_"><use xlink:href="#SVGID_7_" overflow="visible"/></clipPath><path d="M287.9,287.4l8,33.7c9.1,4.6,16.2,5.5,22.5,5.1L301,282.9L287.9,287.4z" clip-path="url(#SVGID_8_)" fill="#5a4a8c"/><defs><path id="SVGID_9_" d="M391.5,230.5C384.9,103.6,321.2,1.7,236.2,14.7s-88.5,100.4-96.3,216.5S28.9,349.6,31.4,438.5 S150.7,553.9,254,527.7C357.4,501.6,399.2,376.6,391.5,230.5z"/></defs><clipPath id="SVGID_10_"><use xlink:href="#SVGID_9_" overflow="visible"/></clipPath><path d="M301.7,344.6l26.7,112.2c16.2-0.7,36.1-2.3,34.8-19.7L330,355.2 C319.1,345.3,307.8,333.2,301.7,344.6z" clip-path="url(#SVGID_10_)" fill="#5a4a8c"/><g><defs><path id="SVGID_11_" d="M391.5,230.5C384.9,103.6,321.2,1.7,236.2,14.7s-88.5,100.4-96.3,216.5S28.9,349.6,31.4,438.5 S150.7,553.9,254,527.7C357.4,501.6,399.2,376.6,391.5,230.5z"/></defs><clipPath id="SVGID_12_"><use xlink:href="#SVGID_11_" overflow="visible"/></clipPath><g clip-path="url(#SVGID_12_)"><path class="st28" d="M339.2,178.6c17.4,63.1-5.9,124.7-52.1,137.5s-97.5-23.5-116.1-90.8c-18.5-67.1,6.9-125,53-137.8 S321.8,115.4,339.2,178.6z"/><path class="st28" d="M243 82.2L224.1 87.5 287.1 316.1 306.1 310.8z"/><path class="st28" d="M354.1,174.4c17.4,63.1-3,123.9-48,136.4s-95.6-28.5-113-91.7c-17.4-63.1,5-124.4,50-136.9 S336.7,111.3,354.1,174.4z"/><path class="st29" d="M203.7 247.5c-4.3-8.8-7.9-18.3-10.7-28.3-15.1-54.9-.2-108.4 33.5-129.7M255.1 304c-14-7.4-27-19.1-37.9-34"/><path d="M313.1,264c-3.6,8.4,25,31.7-7.3,40.5c-42.4,11.6-90.1-27.2-106.6-87s4.4-117.7,46.7-129.4 c33.1-9.2,68.6,13,90.3,51.7C371,201.9,318.3,251.9,313.1,264z" fill="#5a4a8c"/><path class="st4" d="M234.2,92.8c-34.3,18.3-49.9,70.8-35,124.7c14.9,54,55.3,90.9,94.1,89 c43.7-20.9,64.8-74.9,49.9-128.9C328.3,123.7,282.4,88.3,234.2,92.8z"/><path class="st5" d="M323.7 167.4c11.2-4.1 17.2 20.6 17 43.4-.3 26.2-13 52.3-19.7 50.4-4.9-1.4 5-23.3 2.9-52.1C322.7 191.3 313.1 171.3 323.7 167.4zM316.5 157.9c7.9-1.4 4.4-14.4-3.7-23.1s-15.8-10.1-18.6-8.1c-2.9 2.1.8 11.4 6.2 18.8S311.6 158.8 316.5 157.9zM288.5 122.6c-.8 1.5-3.7.9-6.5-.8-2.7-1.7-4.3-4-3.5-5.2s4.1-1 6.9.7C288.2 118.9 289.4 121 288.5 122.6z"/></g></g><g><defs><path id="SVGID_13_" d="M391.5,230.5C384.9,103.6,321.2,1.7,236.2,14.7s-88.5,100.4-96.3,216.5S28.9,349.6,31.4,438.5 S150.7,553.9,254,527.7C357.4,501.6,399.2,376.6,391.5,230.5z"/></defs><clipPath id="SVGID_14_"><use xlink:href="#SVGID_13_" overflow="visible"/></clipPath><path d="M325.6,293.1c0,0,24.2-15,28.9-65.9" clip-path="url(#SVGID_14_)" fill="none" stroke="#b7afa1" stroke-width="1.2" stroke-linecap="round" stroke-linejoin="round" stroke-miterlimit="10"/></g><g><defs><path id="SVGID_15_" d="M391.5,230.5C384.9,103.6,321.2,1.7,236.2,14.7s-88.5,100.4-96.3,216.5S28.9,349.6,31.4,438.5 S150.7,553.9,254,527.7C357.4,501.6,399.2,376.6,391.5,230.5z"/></defs><clipPath id="SVGID_16_"><use xlink:href="#SVGID_15_" overflow="visible"/></clipPath><g clip-path="url(#SVGID_16_)"><path class="st12" d="M341,444.6c-3.1,3.6-3.7,3.6-8,5.1s-6.9,2.6-11.1,4.2s-17.8,0.3-14.4-15.5l28.2-8.2l10.5,3.8 L341,444.6z"/><path class="st15" d="M331,434.5c0,0,6.1-0.5,9.2,2.9c2.6,2.7,0.7,7.2,0.7,7.2s6.6-7.3,9.4-11.8s-1-9.3-6.2-7.1 C339.1,427.8,331,434.5,331,434.5z"/><path class="st12" d="M296.7,397.7c0,0-6.3,13.7-10.8,23.7s0.9,20.5,16.4,18.4l23.3-3.1c2.2-0.3,4.4-1.1,6.2-2.4l13-9.2 c0,0,6.1-2.5,10.1-4.6c6.9-3.6,5.5-13.8-5.8-13.9s-25.9,6.5-25.9,6.5s-6.4-2.3-18.4,1.5L296.7,397.7z"/><path class="st12" d="M284,389.2c0,0-11.2,7.5-10.5,17.8s10.4,13,22.7,13.6c8.1,0.4,16.6,0.8,21.5,1.1 c2.7,0.1,5.4-0.6,7.5-2.2l11.2-7.9c0,0,5.4-1.2,10.7-2.7c5.4-1.5,7.5-8.4-0.6-12.9c-8.2-4.4-20.7-4.2-20.7-4.2L284,389.2 z"/><path class="st16" d="M288.7,419.9c2.3,0.4,4.9,0.6,7.5,0.8c8.1,0.4,16.6,0.8,21.5,1.1c2.7,0.1,5.4-0.6,7.5-2.2l11.2-7.9"/><path class="st12" d="M304.4,342.3c0,0-23.8,14-33.5,19.7s-11.3,17.7,2.9,25.1l21.3,11.1c2,1.1,4.3,1.6,6.6,1.6l16.3-0.1 c0,0,6.5,1.5,11.2,2.1c7.9,1,12.7-8.3,3.3-15.1C323.1,380,307,377,307,377s-1.4-3.4-6.4-5L304.4,342.3z"/><path class="st16" d="M285.7 393.2l9.5 5c2 1.1 4.3 1.6 6.6 1.6l16.3-.1c0 0 7.5 2.5 12.2 3.1M313.4 438.3c0 0 6.4-.9 12.1-1.6s8.3-3.4 12.1-5.7"/></g></g><g><defs><path id="SVGID_17_" d="M391.5,230.5C384.9,103.6,321.2,1.7,236.2,14.7s-88.5,100.4-96.3,216.5S28.9,349.6,31.4,438.5 S150.7,553.9,254,527.7C357.4,501.6,399.2,376.6,391.5,230.5z"/></defs><clipPath id="SVGID_18_"><use xlink:href="#SVGID_17_" overflow="visible"/></clipPath><path d="M284,367.4c0,0,6.7-0.3,12.4,1.9" clip-path="url(#SVGID_18_)" fill="none" stroke="#ee6c4d" stroke-width="1.2" stroke-linecap="round" stroke-linejoin="round" stroke-miterlimit="10"/></g><g><defs><path id="SVGID_19_" d="M391.5,230.5C384.9,103.6,321.2,1.7,236.2,14.7s-88.5,100.4-96.3,216.5S28.9,349.6,31.4,438.5 S150.7,553.9,254,527.7C357.4,501.6,399.2,376.6,391.5,230.5z"/></defs><clipPath id="SVGID_20_"><use xlink:href="#SVGID_19_" overflow="visible"/></clipPath><path d="M282.9,354.9c19,1.1,17.8,17,17.8,17c2.6,1.2,4.7,2.9,6.4,5l2.2,0.5l-7.8-33.4L282.9,354.9z" clip-path="url(#SVGID_20_)" fill="#ee6c4d"/></g><g><defs><path id="SVGID_21_" d="M391.5,230.5C384.9,103.6,321.2,1.7,236.2,14.7s-88.5,100.4-96.3,216.5S28.9,349.6,31.4,438.5 S150.7,553.9,254,527.7C357.4,501.6,399.2,376.6,391.5,230.5z"/></defs><clipPath id="SVGID_22_"><use xlink:href="#SVGID_21_" overflow="visible"/></clipPath><g clip-path="url(#SVGID_22_)"><path class="st12" d="M398.1,370.6l-34.3-32.4c-3.1-2.9-7-4.9-11.1-5.8l-22.4-4.7c-2.8-0.6-5.7-0.4-8.4,0.6l-15.7,5.6 c-2.7,1-5.6,1.2-8.4,0.6l-10.1-2.1c-5.4-1.1-6,2.1-5.3,5.3c0.8,3.8,5.3,11.2,11.2,14.4c15.2,8,32.2,0.7,32.2,0.7 s8,6.9,21.1,11.5c0,0-5.7,27.3,18,40.7c0,0,1.6,13.4,16.9,23.6L398.1,370.6z"/><path class="st16" d="M301.1,336.2c-0.5,2.1-2.4,3.6-4.6,3.6l-7.4-0.2c0,0-3.3-1.9-3.9-6"/></g></g><g><defs><path id="SVGID_23_" d="M234.2,92.8c-34.3,18.3-49.9,70.8-35,124.7c14.9,54,55.3,90.9,94.1,89 c43.7-20.9,64.8-74.9,49.9-128.9C328.4,123.7,282.5,88.3,234.2,92.8z"/></defs><clipPath id="SVGID_24_"><use xlink:href="#SVGID_23_" overflow="visible"/></clipPath><g clip-path="url(#SVGID_24_)"><path d="M217.7,256.3c0,0,0,0-29.5,2.1c-19.1,1.4-10,18.3-10,18.3s-7.6,4.5-12.6,23.3c-4.1,15.5-14.8,17.4-19.2,26.5 c-3.3,6.9-3.9,16.6-3.9,16.6s-11.3-16.3-17.8-26.1c-6.4-9.8-14.1-15.9-25.6-19.1l-12.4-15.4c0,0-7.9,10.1-21.7,13.4 l9.3,19.2c0,0-2.9,10.5,2.6,26.2c11,31.6,49.6,65.6,49.6,65.6c4.3,9.7,13.4,18.8,27.3,5.5c29.9-28.7,29.9-28.7,29.9-28.7 s-2.2,22.8,2.5,35.2c0,0-10.2,16.6-2.3,23.3c9,7.6,19.5-0.5,19.5-0.5s22.8,25.7,62.7,4.3c0,0,25.2,5.2,47.1-12.9 c0,0,29.5,8.4,32.9-22.1c3.3-30.5-9.8-60.2-9.8-60.2l3-81.6c0,0-2.8-10-9-16.6c-8.5-9.1-23-5.6-48.9-6.7L217.7,256.3z"/><path class="st9" d="M330.2,252.8c-2.5-2.7-5.5-4.3-9.2-5.2c-1.4,8-4.7,14.6-1.7,15.8C322.6,264.6,327,258.6,330.2,252.8 z"/><path d="M230.6,217.2c0,0-10.7,2.4-9.2,10.3c4.7,24.2,1.2,28,1.2,28c5.8,33.9,53.5,21.8,58.8-9.4c0,0-3.1-6.7-2.9-22 c0-4.4-3-8-7.2-9.2l0,0L230.6,217.2z"/><path d="M218.8,264.9c2.1,10.1,6.6,19,10.8,26.8l3.8-6.2" fill="none" stroke="#b7afa1" stroke-width="1.2" stroke-linecap="round" stroke-linejoin="round" stroke-miterlimit="10"/><path class="st12" d="M223.8,233.7c3.9,0.1,5.7,1.7,6.8,3.9c1.5,3,3.6,4.3,8.8,3.9c8.9-0.7,20.1-7.3,29.2-16.4 c2.6-2.6,2.8-5.7,2.6-10.2c-0.9-10.2,5.8-27.6,5.8-27.6L223.8,233.7z"/><path class="st15" d="M235,241.3l9.1-11.4l-20.3,3.8C230.7,233.9,230.1,240.5,235,241.3z"/><path d="M204.9,144.1c0,0-16.1,15.4,8.4,26.6l7.2-27L204.9,144.1z"/><path class="st12" d="M268.3,153.5c0,0-19.5-15.7-57.7-12.1c0,0-3.1,9.7-5,22.2c-0.7,4.6,0.3,5.6,0.3,8.2 c0,10.4-2.5,13.8-2.5,28c0,7.1,0.4,18.8,2.7,23.7c2.5,5.3,6.7,10.2,17.9,10.2c19.5,0,36.8-10.7,43.1-19.3 C273.2,205.8,282.6,163.8,268.3,153.5z"/><path class="st16" d="M229.7,234.5c10.8-1,20.6-5.8,27.7-11.3"/><path class="st9" d="M266.7,157.8l5.8-6.5c0,0,14.8-4.6,18.2,8.3C295,176,277,187.2,271.6,207c0,0-4.4-5-4.1-18.1 L266.7,157.8z"/><path class="st12" d="M265.9,177.7c0,0,6.4-7.6,10.9-4.2c4,3,1.3,10-0.5,16s-5.6,10.6-10.4,9.7V177.7z"/><path class="st15" d="M215.3,196.7c0,0,5.1,0.4,10.6-1.1c4.1-1.1,0.4-2.4-2.9-2.8s-7.5-1.2-9.2-0.4 C212.2,193.1,214.1,195.5,215.3,196.7z"/><path class="st5" d="M224.4,209.9c-1.2-3.1,2.3-5.1,6.6-6.6c4.4-1.5,6.5-4.7,9-3.7s0.2,6.8-4,10.2 S225.5,212.8,224.4,209.9z"/><path class="st16" d="M275.5,178.5c0,0-6.6,0.5-8.1,4.5c-1.5,4.1,0.2,8.5-3.6,11.4"/></g></g><path class="st2" d="M71.9,133.9c0,0-5.3,2.2,1.8,25.1"/><path d="M247.3 171.8c-11.5-1.4-22.1 1.2-28.8 1.3s-12.6-1.3-12.6-1.3.1 1.5-.1 3.4c-.2 2.4-.7 5.6-1.1 8.8 0 0 2.7 12.3 10.5 3.3 0 0 1-6 4-5.6 2.8.4 3.9 3.1 8.6 6.9 5.7 4.7 12.8 5.1 22.2-.7 8.8-5.4 15-7.6 15-7.6s1.2-3.6 4.3-5.8C269.4 174.5 258.8 173.1 247.3 171.8zM214.6 179.5c0 1.5-1.3 2.6-4 3.8-3.1 1.4-4.2.3-4.2-3 0-2.6.7-4.4 2.3-4.1C212.7 177.1 214.7 178.1 214.6 179.5zM242.4 181.3c-2.3 3.1-5.5 5-9.8 3-3.7-1.7-5.8-3.5-5.9-5.1-.2-2.2 7-3 13-3.3C245.6 175.7 245 177.9 242.4 181.3zM208.1 146.5c0 0 5.6-14.3 21.7-21.2 6.2-2.7 14.2-3.9 22.3-3.4 2.8.2 5.5-1.7 9.1-1 3.9.7 4.9 3.7 7.5 4.8 6.8 2.9 12.7 7.5 16.7 14.1 7.6 12.7 7.3 26.4 7.3 26.4L208.1 146.5z"/><path d="M206.2,160c1.3-6.5,28.3-5.8,49.4-1.1s34.2,11.9,32.1,18.3l-2.7,4.6c0,0,8.5-0.9,11.5-9.4c2.7-7.5-2.4-25.6-42.5-33.4 c-39.4-7.6-50.6,3.7-53,11.2C199.4,155.3,206.2,160,206.2,160z"/><path class="st20" d="M278 146.5c-6.1-2.9-13.9-5.5-23.9-7.4-19-3.7-31.4-3-39.4-.4M223.8 260.3c0 0 2.1 10.6 13.2 14.1 11.1 3.5 26.6-.4 35.6-10.7"/><path class="st14" d="M197.7,304.6c0,0-5.3,0.8-5.4-2.7s5.4-4,5.4-4l-3.5-13.3"/><path d="M50.1,315.1c-3.5-6.9-8.9-11.2-14.4-13.8c-0.4,1.2,0.1,2.5,1.3,3.1c0.1,0,6.6,3.1,10.1,9.6 c0.5,0.8,1.3,1.3,2.2,1.3C49.6,315.3,49.8,315.2,50.1,315.1z" fill="#005401"/><g><path class="st28" d="M243.6,316.8c-0.3,0-0.5,0-0.8-0.1c-17.4-5.8-29.4-16.9-29.9-17.4c-1-0.9-1.1-2.5-0.1-3.5 s2.5-1.1,3.5-0.1c0.1,0.1,11.8,10.9,28.1,16.3c1.3,0.4,2,1.9,1.6,3.2C245.7,316.2,244.7,316.8,243.6,316.8z"/></g><path d="M244.4,311.9c-16.3-5.5-28-16.2-28.1-16.3c-1-0.9-2.6-0.9-3.5,0.1c0,0,0,0-0.1,0.1 c10.3,9,21.6,15.6,33.2,19.3C246.4,313.8,245.7,312.4,244.4,311.9z" fill="#662bef"/><path class="st11" d="M141.2,351.2l1.9,2.8c0,0,0.7-1,1.2-2.5v-7h-3l1.6,3.5L141.2,351.2z"/><g><path class="st12" d="M178.8,340.5c0,0,1.9-4-1-9s-4-5.7-8.8-5.8c-3.4-0.1-8.3-0.3-10.9-0.4c-1.1,0-2.2,0.2-3.2,0.8l-7.7,4.3 c-1.3,0.7-2.3,1.9-2.8,3.3c-0.8,2-2,5.2-3,7.8c-1,2.6,0.1,3.5,1.3,3.5c0.5,0,0.8,0.5,0.6,1c-0.4,0.8-1,1.9-1.7,3.2 c-1.2,2.2,0.5,4.9,5.2,0.7c0,0-0.7,2.1-0.7,3.5c-0.1,2.3,3.1,2.4,5.5-1.3c0,0-0.6,1.3,1.1,1.5c1.7,0.2,6.9-4.9,6.9-4.9 S174.9,344.9,178.8,340.5z"/><path class="st15" d="M154.6,346.4l-4,6.8c-0.1,1,1.1,1.8,2.8,1c3.5-1.6,6.1-5.5,6.1-5.5S155.4,350.6,154.6,346.4z"/><path class="st16" d="M146 350.5L149.7 342.7"/></g></g></g></svg>