<svg height="512" viewBox="0 0 56 58" width="512" xmlns="http://www.w3.org/2000/svg"><g id="036---Up-Arrow" fill="none" transform="translate(0 -1)"><path id="Shape" d="m52.83 20.08-18.82-16.8c-.02-.02-.05-.04-.07-.06-3.4459253-3.03056333-8.6201622-2.98317231-12.01.11 0 .1-2.552 2.281-18.75 16.75-1.97774499 1.7629326-3.130319 4.2710496-3.18 6.92v5.13c.04688947 3.5202981 2.1465439 6.6884724 5.3703437 8.1033265 3.2237998 1.414854 6.9769974.8153661 9.5996563-1.5333265l2.34-2.09c.2943809-.2657075.7179586-.3323576 1.0797126-.1698933.3617539.1624643.5933272.523344.5902874.9198933v12.32c-.0581881 4.8234405 3.6140806 8.8751478 8.42 9.29 2.4880595.1682438 4.9346106-.7019917 6.7575473-2.403652 1.8229368-1.7016602 2.8592797-4.0826087 2.8624527-6.576348v-12.63c-.0030398-.3965493.2285335-.757429.5902874-.9198933.361754-.1624643.7853317-.0958142 1.0797126.1698933l2.34 2.09c5.731 5.1 14.97 1.15 14.97-6.58v-5.12c-.0433545-2.6482699-1.1928532-5.1575858-3.17-6.92z" fill="#f0c419"/><path id="Shape" d="m6.253 24c-.41480261.0000224-.78655519-.2560395-.93438912-.6436042-.14783392-.3875646-.04105363-.8261597.26838912-1.1023958l11.2-10c.2665201-.2379389.6397338-.3156167.979055-.2037729.3393212.1118437.5931989.3962173.666.746.072801.3497826-.0465349.711834-.313055.9497729-12.198 10.891-11.319 10.254-11.866 10.254z" fill="#f3d55b"/><path id="Shape" d="m21 10.834c-.4148026.0000224-.7865552-.2560395-.9343891-.6436042-.1478339-.38756457-.0410536-.82615969.2683891-1.1023958l4-3.571c.2665201-.23793888.6397338-.31561668.979055-.20377292.3393211.11184376.5931989.39621736.666.746.072801.34978265-.0465349.71183404-.313055.94977292-4.255 3.799-4.14 3.825-4.666 3.825z" fill="#f3d55b"/><g fill="#f29c1f"><path id="Shape" d="m18.98 32.36v5c.0030398-.3965493-.2285335-.757429-.5902874-.9198933-.361754-.1624643-.7853317-.0958142-1.0797126.1698933l-2.34 2.09c-2.6223848 2.3496047-6.37605524 2.9496395-9.60022531 1.534623-3.22417008-1.4150165-5.32374211-4.5839092-5.36977469-8.104623v-4.99c.05073656 3.5184892 2.15182999 6.6831266 5.3748142 8.0954697s6.9738826.8121056 9.5951858-1.5354697l2.34-2.09c.2943809-.2657075.7179586-.3323576 1.0797126-.1698933.3617539.1624643.5933272.523344.5902874.9198933z"/><path id="Shape" d="m37.02 44.99v5c-.003173 2.4937393-1.0395159 4.8746878-2.8624527 6.576348-1.8229367 1.7016603-4.2694878 2.5718958-6.7575473 2.403652-4.8059194-.4148522-8.4781881-4.4665595-8.42-9.29v-5c-.0581881 4.8234405 3.6140806 8.8751478 8.42 9.29 2.4880595.1682438 4.9346106-.7019917 6.7575473-2.403652 1.8229368-1.7016602 2.8592797-4.0826087 2.8624527-6.576348z"/><path id="Shape" d="m56 27.12v5c-.0421758 3.522523-2.1403058 6.6949597-5.3652949 8.1124901-3.2249892 1.4175303-6.9809653.8182411-9.6047051-1.5324901l-2.34-2.09c-.2943809-.2657075-.7179586-.3323576-1.0797126-.1698933-.3617539.1624643-.5933272.523344-.5902874.9198933v-5c-.0030398-.3965493.2285335-.757429.5902874-.9198933.361754-.1624643.7853317-.0958142 1.0797126.1698933l2.34 2.09c5.731 5.1 14.97 1.15 14.97-6.58z"/></g></g></svg>